# xmcd CD database file
#
# Track frame offsets:
#	150
#	20831
#	39014
#	58010
#
# Disc length: 1004 seconds
#
# Revision: 4
# Processed by: cddbd v1.5.2PL0 Copyright (c) Steve Scherf et al.
# Submitted via: CDex 1.51
#
DISCID=2a03ea04
DTITLE=U2 - If God Will Send His Angels
DYEAR=1997
DGENRE=Rock
TTITLE0=If God Will Send His Angels(Single Version)
TTITLE1=Slow Dancing
TTITLE2=Two Shots of Happy, One Shot Of Sad
TTITLE3=Sunday Bloody Sunday(Live From Sarajevo)
EXTD=YEAR: 1997
EXTT0=
EXTT1=
EXTT2=
EXTT3=
PLAYORDER=
